# xmcd
#
# Track frame offsets:
#	150
#	11975
#	24925
#	34975
#	49375
#	61263
#	74050
#	87175
#	99638
#	111100
#	124525
#	133525
#
# Disc length: 1966
#
# Revision: 3
# Processed by: cddbd v1.5.1PL0 Copyright (c) Steve Scherf et al.
# Submitted via: CDex 1.50
# Normalized: r2:DSETVAR1
#
DISCID=a607ac0c
DTITLE=Various Artist - Here's Johnny
DYEAR=1993
DGENRE=Country
TTITLE0=Johnny Paycheck - Take This Job and Shove It
TTITLE1=Johnny Cash - Man in Black
TTITLE2=Johnny Horton - Honky Tonk Man
TTITLE3=Johnny Paycheck - I'm the Only Hell (Mama Ever Raised)
TTITLE4=Johnny Cash - Ring of Fire
TTITLE5=Johnny Horton - North to Alaska
TTITLE6=Johnny Paycheck - She's All I Got
TTITLE7=Johnny Cash - Folsom Prison Blues
TTITLE8=Johnny Horton - The Battle of New Orleans
TTITLE9=Johnny Paycheck - Slide Off of Your Satin Sheets
TTITLE10=Johnny Horton - I'm a One Woman Man
TTITLE11=Johnny Cash - Orange Blossom Special
EXTD=YEAR: 1993
EXTT0=Johnny Paycheck
EXTT1=Johnny Cash
EXTT2=Johnny Horton
EXTT3=Johnny Paycheck
EXTT4=Johnny Cash
EXTT5=Johnny Horton
EXTT6=Johnny Paycheck
EXTT7=Johnny Cash
EXTT8=Johnny Horton
EXTT9=Johnny Paycheck
EXTT10=Johnny Horton
EXTT11=Johnny Cash
PLAYORDER=
